<svg width="27" height="22" viewBox="0 0 27 22" fill="none" xmlns="http://www.w3.org/2000/svg">
<path d="M1.40869 6.41724L12.0886 1.07792C12.1912 1.02668 12.3044 1 12.4191 1C12.5338 1 12.647 1.02668 12.7496 1.07792L23.4295 6.41847C23.5523 6.47997 23.6556 6.57444 23.7278 6.69131C23.8 6.80817 23.8382 6.94282 23.8382 7.08018C23.8382 7.21754 23.8 7.35219 23.7278 7.46905C23.6556 7.58592 23.5523 7.68039 23.4295 7.74189L12.7496 13.0812C12.647 13.1325 12.5338 13.1591 12.4191 13.1591C12.3044 13.1591 12.1912 13.1325 12.0886 13.0812L1.40869 7.74066C1.28587 7.67916 1.18259 7.58469 1.11041 7.46782C1.03823 7.35095 1 7.21631 1 7.07895C1 6.94159 1.03823 6.80694 1.11041 6.69007C1.18259 6.57321 1.28587 6.47874 1.40869 6.41724Z" stroke="white" stroke-width="2" stroke-linecap="round" stroke-linejoin="round"/>
<path d="M25.9863 12.0131V7.69627L23.5195 6.46289M3.7854 8.92966V15.6047C3.78531 16.0714 3.91761 16.5285 4.16693 16.923C4.41625 17.3176 4.77237 17.6332 5.19392 17.8334L11.3608 20.7615C11.6915 20.9185 12.053 21 12.4191 21C12.7852 21 13.1466 20.9185 13.4773 20.7615L19.6442 17.8334C20.0658 17.6332 20.4219 17.3176 20.6712 16.923C20.9205 16.5285 21.0528 16.0714 21.0528 15.6047V8.92966" stroke="white" stroke-width="2" stroke-linecap="round" stroke-linejoin="round"/>
</svg>
