<svg width="24" height="24" viewBox="0 0 24 24" fill="none" xmlns="http://www.w3.org/2000/svg">
<path d="M5.6728 16.4022C6.7354 16.4022 7.5978 17.2646 7.5978 18.3272V21.075C7.5978 21.5855 7.39499 22.0752 7.03398 22.4362C6.67297 22.7972 6.18334 23 5.6728 23H2.925C2.41446 23 1.92483 22.7972 1.56382 22.4362C1.20281 22.0752 1 21.5855 1 21.075V18.3272C1 17.2646 1.8624 16.4022 2.925 16.4022H5.6728ZM5.6728 18.0522H2.925C2.85207 18.0522 2.78212 18.0812 2.73055 18.1327C2.67897 18.1843 2.65 18.2543 2.65 18.3272V21.075C2.65 21.2268 2.7732 21.35 2.925 21.35H5.6728C5.74573 21.35 5.81568 21.321 5.86725 21.2695C5.91883 21.2179 5.9478 21.1479 5.9478 21.075V18.3272C5.9478 18.2543 5.91883 18.1843 5.86725 18.1327C5.81568 18.0812 5.74573 18.0522 5.6728 18.0522ZM9.5228 18.6H22.1783C22.3873 18.6001 22.5885 18.6795 22.7413 18.8222C22.894 18.9649 22.9869 19.1602 23.0011 19.3688C23.0154 19.5773 22.9499 19.7835 22.818 19.9456C22.6861 20.1078 22.4976 20.2138 22.2905 20.2423L22.1783 20.25H9.5228C9.31377 20.2499 9.11256 20.1705 8.95983 20.0278C8.80709 19.8851 8.71422 19.6898 8.69997 19.4812C8.68572 19.2727 8.75117 19.0665 8.88308 18.9044C9.01498 18.7422 9.20352 18.6362 9.4106 18.6077L9.5228 18.6ZM5.6728 8.7011C6.7354 8.7011 7.5978 9.5635 7.5978 10.6261V13.3739C7.5978 13.8844 7.39499 14.3741 7.03398 14.7351C6.67297 15.0961 6.18334 15.2989 5.6728 15.2989H2.925C2.41446 15.2989 1.92483 15.0961 1.56382 14.7351C1.20281 14.3741 1 13.8844 1 13.3739V10.625C1 9.5624 1.8624 8.7 2.925 8.7H5.6728V8.7011ZM5.6728 10.3511H2.925C2.85207 10.3511 2.78212 10.3801 2.73055 10.4316C2.67897 10.4832 2.65 10.5532 2.65 10.6261V13.3739C2.65 13.5257 2.7732 13.6489 2.925 13.6489H5.6728C5.74573 13.6489 5.81568 13.6199 5.86725 13.5684C5.91883 13.5168 5.9478 13.4468 5.9478 13.3739V10.625C5.9478 10.5521 5.91883 10.4821 5.86725 10.4305C5.81568 10.379 5.74573 10.35 5.6728 10.35V10.3511ZM9.5228 10.9H22.1783C22.3873 10.9001 22.5885 10.9795 22.7413 11.1222C22.894 11.2649 22.9869 11.4602 23.0011 11.6688C23.0154 11.8773 22.9499 12.0835 22.818 12.2456C22.6861 12.4078 22.4976 12.5138 22.2905 12.5423L22.1783 12.55H9.5228C9.31377 12.5499 9.11256 12.4705 8.95983 12.3278C8.80709 12.1851 8.71422 11.9898 8.69997 11.7812C8.68572 11.5727 8.75117 11.3665 8.88308 11.2044C9.01498 11.0422 9.20352 10.9362 9.4106 10.9077L9.5228 10.9ZM5.6728 1C6.7354 1 7.5978 1.8624 7.5978 2.925V5.6728C7.5978 6.18334 7.39499 6.67297 7.03398 7.03398C6.67297 7.39499 6.18334 7.5978 5.6728 7.5978H2.925C2.41446 7.5978 1.92483 7.39499 1.56382 7.03398C1.20281 6.67297 1 6.18334 1 5.6728V2.925C1 1.8624 1.8624 1 2.925 1H5.6728ZM5.6728 2.65H2.925C2.85207 2.65 2.78212 2.67897 2.73055 2.73055C2.67897 2.78212 2.65 2.85207 2.65 2.925V5.6728C2.65 5.8246 2.7732 5.9478 2.925 5.9478H5.6728C5.74573 5.9478 5.81568 5.91883 5.86725 5.86725C5.91883 5.81568 5.9478 5.74574 5.9478 5.6728V2.925C5.9478 2.85207 5.91883 2.78212 5.86725 2.73055C5.81568 2.67897 5.74573 2.65 5.6728 2.65ZM9.5228 3.2H22.1783C22.3873 3.20006 22.5885 3.27947 22.7413 3.42217C22.894 3.56487 22.9869 3.76023 23.0011 3.96877C23.0154 4.17731 22.9499 4.38348 22.818 4.54563C22.6861 4.70778 22.4976 4.81381 22.2905 4.8423L22.1783 4.85H9.5228C9.31377 4.84994 9.11256 4.77053 8.95983 4.62783C8.80709 4.48513 8.71422 4.28977 8.69997 4.08123C8.68572 3.87269 8.75117 3.66652 8.88308 3.50437C9.01498 3.34222 9.20352 3.23619 9.4106 3.2077L9.5228 3.2Z" fill="white"/>
</svg>
