<svg width="22" height="22" viewBox="0 0 22 22" fill="none" xmlns="http://www.w3.org/2000/svg">
<path d="M6.55556 1H2.11111C1.81643 1 1.53381 1.11706 1.32544 1.32544C1.11706 1.53381 1 1.81643 1 2.11111V6.55556M6.55556 21H2.11111C1.81643 21 1.53381 20.8829 1.32544 20.6746C1.11706 20.4662 1 20.1836 1 19.8889V15.4444M15.4444 21H19.8889C20.1836 21 20.4662 20.8829 20.6746 20.6746C20.8829 20.4662 21 20.1836 21 19.8889V15.4444M15.4444 1H19.8889C20.1836 1 20.4662 1.11706 20.6746 1.32544C20.8829 1.53381 21 1.81643 21 2.11111V6.55556M4.88889 16V7.66667H8.22222L9.33333 6H12.6667L13.7778 7.66667H17.1111V16H4.88889Z" stroke="white" stroke-width="2" stroke-linecap="round" stroke-linejoin="round"/>
<path d="M10.9999 13.2222C11.2188 13.2222 11.4355 13.1791 11.6377 13.0954C11.8399 13.0116 12.0237 12.8889 12.1784 12.7341C12.3332 12.5793 12.456 12.3956 12.5397 12.1934C12.6235 11.9912 12.6666 11.7745 12.6666 11.5556C12.6666 11.3367 12.6235 11.12 12.5397 10.9178C12.456 10.7156 12.3332 10.5318 12.1784 10.3771C12.0237 10.2223 11.8399 10.0995 11.6377 10.0158C11.4355 9.93203 11.2188 9.88892 10.9999 9.88892C10.5579 9.88892 10.134 10.0645 9.82141 10.3771C9.50885 10.6896 9.33325 11.1136 9.33325 11.5556C9.33325 11.9976 9.50885 12.4215 9.82141 12.7341C10.134 13.0467 10.5579 13.2222 10.9999 13.2222Z" stroke="white" stroke-width="2" stroke-miterlimit="10"/>
</svg>
