<svg width="20" height="22" viewBox="0 0 20 22" fill="none" xmlns="http://www.w3.org/2000/svg">
<path d="M9.25952 8.52014C9.07123 8.52014 8.89066 8.59494 8.75753 8.72807C8.62439 8.86121 8.54959 9.04178 8.54959 9.23007V10.3319C8.54976 12.0279 8.81418 13.7136 9.33335 15.3283L11.2232 21.2065C11.2842 21.3812 11.4111 21.5253 11.5767 21.6078C11.7424 21.6904 11.9337 21.705 12.11 21.6485C12.2863 21.5921 12.4335 21.469 12.5204 21.3055C12.6072 21.142 12.6268 20.9511 12.5749 20.7734L10.6865 14.8938C10.2124 13.4196 9.97101 11.8805 9.97086 10.3319V9.23007C9.97086 9.04178 9.89607 8.86121 9.76293 8.72807C9.62979 8.59494 9.44922 8.52014 9.26094 8.52014H9.25952Z" fill="white"/>
<path d="M12.0992 9.2302C12.0992 8.85729 12.0258 8.48802 11.8831 8.1435C11.7404 7.79897 11.5312 7.48592 11.2675 7.22223C11.0038 6.95854 10.6908 6.74937 10.3462 6.60666C10.0017 6.46395 9.63245 6.3905 9.25954 6.3905C8.88662 6.3905 8.51736 6.46395 8.17283 6.60666C7.8283 6.74937 7.51526 6.95854 7.25157 7.22223C6.98788 7.48592 6.77871 7.79897 6.636 8.1435C6.49329 8.48802 6.41984 8.85729 6.41984 9.2302C6.41984 9.41848 6.49463 9.59906 6.62777 9.73219C6.76091 9.86533 6.94148 9.94012 7.12976 9.94012C7.31805 9.94012 7.49862 9.86533 7.63176 9.73219C7.76489 9.59906 7.83969 9.41848 7.83969 9.2302C7.83969 8.85363 7.98928 8.49249 8.25555 8.22622C8.52183 7.95994 8.88297 7.81035 9.25954 7.81035C9.6361 7.81035 9.99725 7.95994 10.2635 8.22622C10.5298 8.49249 10.6794 8.85363 10.6794 9.2302V9.70159C10.6794 10.2823 10.7106 10.8602 10.7731 11.4352C10.7977 11.6186 10.8928 11.7851 11.0383 11.8993C11.1838 12.0135 11.3681 12.0665 11.552 12.0468C11.7359 12.0272 11.9049 11.9366 12.0231 11.7943C12.1412 11.6519 12.1991 11.4691 12.1844 11.2847C12.1276 10.7594 12.0992 10.2312 12.0992 9.70159V9.2302ZM7.11698 10.65C7.02375 10.6524 6.93189 10.6732 6.84668 10.7111C6.76146 10.749 6.68454 10.8033 6.62033 10.871C6.55611 10.9386 6.50586 11.0182 6.47243 11.1053C6.439 11.1924 6.42306 11.2852 6.42552 11.3784C6.4676 12.9912 6.74846 14.5889 7.25897 16.1193L9.0565 21.5147C9.11618 21.6934 9.24441 21.8411 9.41296 21.9252C9.58151 22.0094 9.77658 22.0231 9.95526 21.9634C10.1339 21.9037 10.2816 21.7755 10.3657 21.6069C10.4499 21.4384 10.4636 21.2433 10.4039 21.0646L8.60499 15.6692C8.13942 14.2721 7.88344 12.8137 7.84537 11.3415C7.84298 11.2483 7.82223 11.1564 7.78433 11.0712C7.74642 10.986 7.6921 10.9091 7.62445 10.8449C7.55681 10.7806 7.47718 10.7304 7.3901 10.697C7.30303 10.6635 7.21022 10.6476 7.11698 10.65ZM11.882 13.653C11.7928 13.6806 11.71 13.7254 11.6381 13.785C11.5663 13.8446 11.507 13.9177 11.4634 14.0003C11.4199 14.0828 11.3931 14.1732 11.3845 14.2661C11.3759 14.359 11.3858 14.4527 11.4134 14.5419L13.2635 20.5024C13.2897 20.593 13.3338 20.6775 13.393 20.751C13.4523 20.8244 13.5256 20.8853 13.6087 20.93C13.6917 20.9748 13.7829 21.0026 13.8768 21.0117C13.9707 21.0208 14.0655 21.0111 14.1556 20.9832C14.2458 20.9553 14.3294 20.9096 14.4017 20.849C14.474 20.7883 14.5335 20.7139 14.5767 20.63C14.6199 20.5461 14.6459 20.4544 14.6532 20.3604C14.6606 20.2663 14.6491 20.1717 14.6195 20.0821L12.7694 14.1202C12.7135 13.9407 12.5887 13.7907 12.4223 13.7031C12.2559 13.6155 12.0616 13.5975 11.882 13.653Z" fill="white"/>
<path d="M13.9465 7.57332C13.5544 6.46955 12.7851 5.53971 11.7743 4.94781C10.7635 4.35591 9.57609 4.13999 8.42161 4.33811C7.26714 4.53624 6.21971 5.1357 5.46409 6.03075C4.70847 6.9258 4.2932 8.05893 4.29153 9.23029C4.29153 9.41857 4.36632 9.59914 4.49946 9.73228C4.6326 9.86541 4.81317 9.94021 5.00145 9.94021C5.18974 9.94021 5.37031 9.86541 5.50345 9.73228C5.63658 9.59914 5.71138 9.41857 5.71138 9.23029C5.71151 8.393 6.00761 7.58272 6.54736 6.94262C7.08711 6.30253 7.83575 5.87384 8.66098 5.73231C9.48622 5.59078 10.3349 5.74552 11.0571 6.16918C11.7793 6.59284 12.3285 7.25816 12.6076 8.04755C12.6705 8.2251 12.8013 8.3704 12.9713 8.45148C13.1413 8.53256 13.3366 8.54278 13.5142 8.4799C13.6917 8.41701 13.837 8.28617 13.9181 8.11615C13.9992 7.94613 14.0094 7.75087 13.9465 7.57332ZM13.5205 9.94447C13.3332 9.96278 13.1608 10.0547 13.0413 10.2001C12.9218 10.3455 12.8648 10.5324 12.883 10.7197C12.9789 11.697 13.1691 12.6628 13.451 13.6034L15.186 19.385C15.2401 19.5654 15.3635 19.7169 15.5293 19.8063C15.6951 19.8956 15.8895 19.9154 16.0699 19.8614C16.2503 19.8074 16.4018 19.6839 16.4911 19.5181C16.5805 19.3524 16.6003 19.1579 16.5462 18.9775L14.8112 13.1959C14.5554 12.3428 14.3828 11.4669 14.2958 10.5806C14.2775 10.3932 14.1855 10.2209 14.0401 10.1013C13.8948 9.98177 13.7079 9.92626 13.5205 9.94447ZM5.00145 10.8631C4.81317 10.8631 4.6326 10.9379 4.49946 11.071C4.36632 11.2042 4.29153 11.3848 4.29153 11.573C4.29153 13.3904 4.59396 15.1965 5.18887 16.9145L6.73651 21.3799C6.80391 21.5499 6.93432 21.6874 7.10055 21.7636C7.26679 21.8398 7.45602 21.849 7.62883 21.7891C7.80163 21.7292 7.94467 21.605 8.02813 21.4423C8.1116 21.2796 8.12905 21.0909 8.07685 20.9156L6.53063 16.4502C5.98825 14.8813 5.70996 13.2328 5.70996 11.573C5.70996 11.3848 5.63516 11.2042 5.50203 11.071C5.36889 10.9379 5.18832 10.8631 5.00003 10.8631H5.00145Z" fill="white"/>
<path d="M15.1633 5.28583C14.3745 4.10327 13.2486 3.18497 11.9316 2.65002C10.6146 2.11507 9.16721 1.98814 7.7772 2.28569C7.68593 2.30508 7.59937 2.34226 7.52247 2.3951C7.44557 2.44794 7.37983 2.51542 7.329 2.59367C7.27817 2.67192 7.24326 2.75941 7.22625 2.85116C7.20923 2.9429 7.21046 3.0371 7.22985 3.12837C7.24924 3.21964 7.28642 3.3062 7.33926 3.3831C7.39211 3.46 7.45958 3.52574 7.53783 3.57657C7.61608 3.6274 7.70358 3.66231 7.79532 3.67932C7.88706 3.69634 7.98126 3.69511 8.07253 3.67572C9.18478 3.43704 10.3431 3.5382 11.3971 3.96609C12.4512 4.39399 13.3522 5.12884 13.9834 6.07526C14.0896 6.22815 14.2515 6.33321 14.4344 6.36782C14.6173 6.40243 14.8065 6.36382 14.9612 6.26031C15.1159 6.1568 15.2238 5.99667 15.2616 5.8144C15.2994 5.63213 15.2641 5.44232 15.1633 5.28583ZM5.62187 3.92987C5.49889 3.78739 5.32437 3.69957 5.13666 3.68572C4.94895 3.67188 4.76343 3.73314 4.62088 3.85604C3.84829 4.52201 3.2286 5.34694 2.80418 6.27444C2.37975 7.20195 2.1606 8.21017 2.1617 9.23017V11.3599C2.1617 11.5482 2.23649 11.7288 2.36963 11.8619C2.50277 11.9951 2.68334 12.0699 2.87162 12.0699C3.05991 12.0699 3.24048 11.9951 3.37362 11.8619C3.50675 11.7288 3.58155 11.5482 3.58155 11.3599V9.23017C3.58055 8.41409 3.75588 7.60743 4.09553 6.8654C4.43518 6.12336 4.93114 5.46346 5.54946 4.93087C5.69174 4.80769 5.77929 4.63306 5.79287 4.44536C5.80645 4.25766 5.74494 4.07224 5.62187 3.92987ZM15.4785 7.58598C15.3861 7.59953 15.2974 7.63115 15.2173 7.67903C15.1372 7.7269 15.0673 7.7901 15.0117 7.865C14.956 7.93991 14.9157 8.02504 14.893 8.11555C14.8703 8.20606 14.8656 8.30015 14.8793 8.39246C14.9205 8.66507 14.9418 8.9462 14.9418 9.23017C14.9418 10.2383 15.0837 11.2421 15.3649 12.2119L16.9835 17.7819C17.0078 17.8734 17.0501 17.9591 17.1079 18.034C17.1658 18.1089 17.238 18.1715 17.3204 18.218C17.4028 18.2646 17.4937 18.2942 17.5877 18.3051C17.6817 18.3161 17.777 18.3081 17.8678 18.2817C17.9587 18.2553 18.0434 18.211 18.1169 18.1513C18.1904 18.0917 18.2513 18.018 18.2959 17.9345C18.3405 17.8511 18.3679 17.7595 18.3766 17.6653C18.3853 17.571 18.3751 17.476 18.3466 17.3858L16.7279 11.8157C16.4845 10.9755 16.3611 10.105 16.3616 9.23017C16.3616 8.87521 16.3346 8.52592 16.2849 8.18516C16.2714 8.09284 16.2398 8.00409 16.1919 7.92399C16.144 7.8439 16.0808 7.77403 16.0059 7.71838C15.931 7.66273 15.8459 7.62239 15.7554 7.59967C15.6649 7.57696 15.5708 7.5723 15.4785 7.58598ZM2.86736 12.7826C2.67987 12.7985 2.50635 12.8882 2.38495 13.032C2.26355 13.1758 2.20419 13.3618 2.21991 13.5493C2.33918 14.9692 2.64303 16.3692 3.12862 17.7152L4.18498 20.6514C4.25084 20.8256 4.38252 20.967 4.55163 21.045C4.72075 21.123 4.91375 21.1315 5.08903 21.0685C5.26431 21.0056 5.40783 20.8763 5.48865 20.7085C5.56946 20.5407 5.58111 20.3478 5.52106 20.1715L4.46327 17.2324C4.02208 16.0066 3.74331 14.7283 3.63408 13.4301C3.61818 13.2426 3.52849 13.0691 3.38473 12.9477C3.24096 12.8263 3.05488 12.7669 2.86736 12.7826Z" fill="white"/>
<path d="M13.8741 1.23645C12.471 0.426388 10.8794 -5.2009e-05 9.25926 4.75759e-09C7.63913 5.20185e-05 6.04755 0.426595 4.64453 1.23675C3.24151 2.04691 2.07648 3.21213 1.26655 4.61528C0.456615 6.01843 0.0303288 7.61007 0.0305367 9.2302C0.0305367 9.41849 0.105333 9.59906 0.23847 9.73219C0.371607 9.86533 0.552177 9.94013 0.740461 9.94013C0.928745 9.94013 1.10932 9.86533 1.24245 9.73219C1.37559 9.59906 1.45039 9.41849 1.45039 9.2302C1.44992 7.85918 1.81042 6.5122 2.49563 5.32469C3.18083 4.13718 4.1666 3.15099 5.35383 2.46528C6.54105 1.77957 7.88788 1.41851 9.25889 1.41839C10.6299 1.41828 11.9768 1.77911 13.1641 2.46462C13.3264 2.5495 13.5152 2.5684 13.691 2.51738C13.8669 2.46637 14.0162 2.34937 14.1078 2.19085C14.1995 2.03232 14.2263 1.84452 14.1827 1.66667C14.1392 1.48882 14.0286 1.33469 13.8741 1.23645ZM15.1377 3.0212C15.0682 3.08329 15.0115 3.15847 14.971 3.24245C14.9305 3.32643 14.907 3.41756 14.9017 3.51065C14.8964 3.60373 14.9096 3.69694 14.9403 3.78496C14.9711 3.87297 15.0188 3.95407 15.0809 4.02362C16.3639 5.45403 17.072 7.30872 17.0687 9.2302C17.0687 9.41849 17.1435 9.59906 17.2767 9.73219C17.4098 9.86533 17.5904 9.94013 17.7786 9.94013C17.9669 9.94013 18.1475 9.86533 18.2806 9.73219C18.4138 9.59906 18.4886 9.41849 18.4886 9.2302C18.4886 6.86757 17.5997 4.7094 16.1387 3.078C16.0766 3.00845 16.0015 2.95181 15.9175 2.91131C15.8335 2.87081 15.7424 2.84726 15.6493 2.84198C15.5562 2.83671 15.463 2.84982 15.375 2.88057C15.287 2.91132 15.2073 2.95911 15.1377 3.0212ZM17.9845 10.6784C17.8035 10.7294 17.6501 10.8502 17.558 11.0141C17.4659 11.1781 17.4426 11.3719 17.4933 11.5531L18.5993 15.4818C18.6214 15.5749 18.6621 15.6625 18.7189 15.7395C18.7757 15.8165 18.8475 15.8812 18.9299 15.9297C19.0123 15.9782 19.1037 16.0096 19.1986 16.0219C19.2934 16.0343 19.3898 16.0273 19.4819 16.0014C19.574 15.9756 19.6599 15.9314 19.7345 15.8715C19.8091 15.8116 19.8708 15.7373 19.916 15.6529C19.9611 15.5686 19.9888 15.476 19.9972 15.3807C20.0057 15.2854 19.9948 15.1894 19.9652 15.0984L18.8606 11.1697C18.8353 11.0799 18.7927 10.996 18.735 10.9227C18.6773 10.8494 18.6057 10.7882 18.5244 10.7425C18.443 10.6969 18.3534 10.6678 18.2608 10.6568C18.1682 10.6458 18.0743 10.6531 17.9845 10.6784ZM0.733362 11.3614C0.640129 11.3632 0.548172 11.3834 0.462744 11.4208C0.377317 11.4582 0.300095 11.5121 0.235487 11.5793C0.170879 11.6466 0.120152 11.7259 0.0862045 11.8127C0.0522556 11.8996 0.0357533 11.9923 0.0376358 12.0855C0.0802307 14.2139 0.266232 16.3806 1.06987 18.5217L1.16926 18.7872C1.23879 18.9587 1.37252 19.0962 1.54196 19.1705C1.7114 19.2449 1.90316 19.2501 2.07641 19.1851C2.24965 19.1202 2.39069 18.9901 2.46948 18.8227C2.54827 18.6553 2.55858 18.4637 2.49824 18.2888L2.39885 18.0233C1.6804 16.1065 1.49866 14.1329 1.45749 12.0571C1.45564 11.9639 1.43544 11.8719 1.39805 11.7865C1.36066 11.7011 1.3068 11.6239 1.23955 11.5592C1.17231 11.4946 1.09299 11.4439 1.00614 11.41C0.919287 11.376 0.826597 11.3595 0.733362 11.3614Z" fill="white"/>
</svg>
