<svg width="22" height="4" viewBox="0 0 22 4" fill="none" xmlns="http://www.w3.org/2000/svg">
<path d="M11 3.14286C11.8679 3.14286 12.5714 2.4393 12.5714 1.57143C12.5714 0.703552 11.8679 0 11 0C10.1321 0 9.42859 0.703552 9.42859 1.57143C9.42859 2.4393 10.1321 3.14286 11 3.14286Z" fill="white"/>
<path d="M1.57143 3.14286C2.4393 3.14286 3.14286 2.4393 3.14286 1.57143C3.14286 0.703552 2.4393 0 1.57143 0C0.703552 0 0 0.703552 0 1.57143C0 2.4393 0.703552 3.14286 1.57143 3.14286Z" fill="white"/>
<path d="M20.4285 3.14286C21.2964 3.14286 22 2.4393 22 1.57143C22 0.703552 21.2964 0 20.4285 0C19.5607 0 18.8571 0.703552 18.8571 1.57143C18.8571 2.4393 19.5607 3.14286 20.4285 3.14286Z" fill="white"/>
</svg>
